<?xml version="1.0" encoding="UTF-8" standalone="no"?>
<!-- Created with Inkscape (http://www.inkscape.org/) -->

<svg
   width="1280"
   height="720"
   viewBox="0 0 338.66667 190.5"
   version="1.1"
   id="svg5"
   inkscape:version="1.1 (1:1.1+202105261517+ce6663b3b7)"
   sodipodi:docname="cover.svg"
   inkscape:export-filename="/home/juanlu/Projects/Talks/charla-gsoc/img/covers/cover.png"
   inkscape:export-xdpi="96"
   inkscape:export-ydpi="96"
   xmlns:inkscape="http://www.inkscape.org/namespaces/inkscape"
   xmlns:sodipodi="http://sodipodi.sourceforge.net/DTD/sodipodi-0.dtd"
   xmlns="http://www.w3.org/2000/svg"
   xmlns:svg="http://www.w3.org/2000/svg">
  <sodipodi:namedview
     id="namedview7"
     pagecolor="#ffffff"
     bordercolor="#999999"
     borderopacity="1"
     inkscape:pageshadow="0"
     inkscape:pageopacity="1"
     inkscape:pagecheckerboard="0"
     inkscape:document-units="mm"
     showgrid="false"
     inkscape:zoom="0.73940797"
     inkscape:cx="396.26297"
     inkscape:cy="453.74139"
     inkscape:window-width="1920"
     inkscape:window-height="1015"
     inkscape:window-x="0"
     inkscape:window-y="0"
     inkscape:window-maximized="1"
     inkscape:current-layer="layer1"
     units="px" />
  <defs
     id="defs2">
    <rect
       x="627.89771"
       y="619.07654"
       width="479.39304"
       height="111.05629"
       id="rect76578" />
    <rect
       x="127.22284"
       y="451.68707"
       width="1053.1116"
       height="256.59552"
       id="rect5906" />
  </defs>
  <g
     inkscape:label="Layer 1"
     inkscape:groupmode="layer"
     id="layer1">
    <g
       id="g1097"
       transform="matrix(0.37488898,0,0,0.37488898,133.34399,16.130526)">
      <path
         class="st0"
         d="M 158.1,33.7 H 121.7 L 96,8 70.3,33.7 H 33.9 V 70.1 L 8.2,95.9 33.9,121.6 V 158 H 70.3 L 96,183.7 121.7,158 h 36.4 V 121.6 L 183.8,95.9 158.1,70.2 Z m 0.6,62.2 c 0,34.6 -28.1,62.7 -62.7,62.7 -34.6,0 -62.7,-28.1 -62.7,-62.7 0,-34.6 28.1,-62.7 62.7,-62.7 34.6,0 62.7,28.1 62.7,62.7 z"
         id="path1093" />
      <path
         class="st0"
         d="m 96,41.2 c -30.2,0 -54.7,24.5 -54.7,54.7 0,30.2 24.5,54.7 54.7,54.7 30.2,0 54.7,-24.5 54.7,-54.7 C 150.7,65.7 126.2,41.2 96,41.2 Z M 79.9,75.6 v 9 l -14.5,11.3 14.5,11.3 v 9 l -1,-0.7 L 57.4,98.7 56,97.6 v -3.4 l 1.4,-1.1 21.5,-16.7 z m 25.8,-5.2 -11.9,52.6 -0.1,0.4 h -7.4 l 0.4,-2 11.9,-52.5 0.1,-0.4 h 7.4 z m 30.3,27.2 -1.4,1.1 -21.6,16.7 -1,0.7 v -9 L 126.5,95.8 112,84.5 v -9 0 l 1,0.7 21.5,16.8 1.4,1.1 v 3.5 z"
         id="path1095" />
    </g>
    <text
       xml:space="preserve"
       transform="matrix(0.26458333,0,0,0.26458333,-3.6642771,-21.186362)"
       id="text5904"
       style="font-style:normal;font-weight:normal;font-size:53.3333px;line-height:1.25;font-family:sans-serif;white-space:pre;shape-inside:url(#rect5906);fill:#000000;fill-opacity:1;stroke:none"
       x="386.67969"
       y="0"><tspan
         x="200.87306"
         y="501.42039"
         id="tspan85"><tspan
           style="font-family:Ubuntu;-inkscape-font-specification:Ubuntu;text-align:center;text-anchor:middle"
           id="tspan83">Cómo ganar dinero siendo estudiante
</tspan></tspan><tspan
         x="180.26989"
         y="570.63242"
         id="tspan91"><tspan
           style="font-family:Ubuntu;-inkscape-font-specification:Ubuntu;text-align:center;text-anchor:middle"
           id="tspan87">gracias a </tspan><tspan
           style="font-weight:bold"
           id="tspan89">Google Summer of Code</tspan></tspan></text>
    <text
       xml:space="preserve"
       transform="matrix(0.26458333,0,0,0.26458333,27.979614,-5.4759479)"
       id="text76576"
       style="font-style:normal;font-weight:normal;font-size:32px;line-height:1.25;font-family:sans-serif;white-space:pre;shape-inside:url(#rect76578);fill:#000000;fill-opacity:1;stroke:none"
       x="467.90051"
       y="0"><tspan
         x="635.61212"
         y="648.91592"
         id="tspan95"><tspan
           style="font-family:Ubuntu;-inkscape-font-specification:Ubuntu;text-align:end;text-anchor:end;fill:#333333"
           id="tspan93">Jorge Martínez &amp; Juan Luis Cano
</tspan></tspan><tspan
         x="840.02747"
         y="690.44314"
         id="tspan99"><tspan
           style="font-family:Ubuntu;-inkscape-font-specification:Ubuntu;text-align:end;text-anchor:end;fill:#333333"
           id="tspan97">2021-09-21 Online</tspan></tspan></text>
  </g>
  <style
     type="text/css"
     id="style1091">
	.st0{fill:#FBBC05;}
</style>
</svg>
